<?xml version="1.0" encoding="utf-8"?>
<svg xmlns="http://www.w3.org/2000/svg" viewBox="0 0 500 500" xmlns:bx="https://boxy-svg.com">
  <path d="M 0.023 50.143 C 9.122 51.496 18.003 53.449 26.96 55.522 C 32.537 56.811 38.122 58.058 43.71 59.296 C 46.352 59.883 48.993 60.47 51.634 61.058 C 53.364 61.442 55.094 61.824 56.824 62.205 C 73.3 65.832 89.468 69.717 105.085 76.206 C 106.968 76.973 108.852 77.741 110.735 78.508 C 112.866 79.378 114.994 80.253 117.122 81.13 C 122.828 83.477 128.543 85.802 134.257 88.128 C 154.601 96.412 154.601 96.412 162.652 99.72 C 167.114 101.553 171.58 103.37 176.071 105.129 C 176.846 105.437 177.621 105.745 178.42 106.061 C 179.829 106.62 181.241 107.17 182.657 107.708 C 188.586 110.076 192.703 112.811 195.898 118.456 C 196.269 119.343 196.64 120.23 197.023 121.143 C 198.052 121.153 199.08 121.162 200.14 121.172 C 203.976 121.212 207.811 121.278 211.647 121.351 C 213.303 121.379 214.96 121.4 216.616 121.414 C 219.005 121.436 221.392 121.483 223.781 121.534 C 224.515 121.535 225.25 121.537 226.007 121.538 C 231.117 121.682 234.084 122.916 238.023 126.143 C 239.249 128.596 239.137 130.194 239.12 132.933 C 239.117 133.874 239.114 134.815 239.111 135.784 C 239.102 136.769 239.094 137.754 239.085 138.768 C 239.081 139.761 239.076 140.754 239.072 141.776 C 239.06 144.232 239.043 146.688 239.023 149.143 C 240.058 149.133 240.058 149.133 241.115 149.123 C 248.301 149.057 255.487 149.012 262.674 148.979 C 265.356 148.965 268.038 148.944 270.72 148.917 C 274.575 148.881 278.429 148.864 282.284 148.851 C 283.484 148.835 284.683 148.82 285.918 148.804 C 287.039 148.803 288.16 148.803 289.314 148.803 C 290.298 148.796 291.282 148.79 292.295 148.783 C 296.416 149.328 298.913 151.028 301.811 153.94 C 303.427 156.879 303.404 159.045 303.411 162.393 C 303.42 163.658 303.43 164.923 303.44 166.226 C 303.434 167.604 303.428 168.981 303.421 170.358 C 303.423 171.776 303.426 173.193 303.43 174.61 C 303.434 177.578 303.428 180.546 303.414 183.514 C 303.397 187.312 303.407 191.109 303.425 194.906 C 303.435 197.833 303.432 200.759 303.424 203.685 C 303.422 205.085 303.425 206.485 303.432 207.885 C 303.439 209.844 303.425 211.804 303.411 213.764 C 303.408 214.878 303.406 215.992 303.404 217.139 C 302.964 220.604 302.207 222.424 300.023 225.143 C 295.917 227.58 291.664 227.416 287.02 227.371 C 286.229 227.371 285.438 227.371 284.623 227.371 C 282.021 227.37 279.418 227.354 276.816 227.339 C 275.007 227.335 273.198 227.332 271.389 227.33 C 266.636 227.323 261.884 227.303 257.131 227.281 C 252.278 227.26 247.425 227.251 242.572 227.241 C 233.055 227.22 223.539 227.186 214.023 227.143 C 213.943 231.735 213.922 236.321 213.956 240.913 C 213.959 242.473 213.946 244.032 213.916 245.592 C 213.459 254.54 213.459 254.54 216.862 262.406 C 219.189 263.977 221.428 265.082 224.023 266.143 C 225.161 266.801 226.299 267.458 227.472 268.135 C 228.541 268.71 229.609 269.285 230.71 269.878 C 231.916 270.541 233.122 271.205 234.327 271.87 C 236.172 272.884 238.019 273.891 239.875 274.883 C 251.205 280.953 259.167 288.44 265.898 299.456 C 266.815 300.915 267.735 302.374 268.656 303.831 C 269.171 304.651 269.687 305.471 270.219 306.315 C 272.349 309.654 274.521 312.963 276.702 316.268 C 277.325 317.213 277.325 317.213 277.96 318.177 C 279.639 320.724 281.319 323.27 283.003 325.814 C 285.708 329.904 288.379 334.014 291.023 338.143 C 291.681 339.163 292.34 340.182 293.019 341.232 C 297.446 348.385 299.918 355.322 301.96 363.456 C 302.449 365.308 302.449 365.308 302.947 367.197 C 303.815 370.49 304.661 373.788 305.499 377.088 C 306.572 381.3 307.66 385.508 308.746 389.716 C 309.612 393.076 310.474 396.437 311.321 399.801 C 312.984 406.352 314.78 412.767 317.023 419.143 C 323.324 418.465 329.404 417.277 335.585 415.893 C 336.593 415.672 337.6 415.45 338.638 415.221 C 342.705 414.326 346.77 413.423 350.835 412.517 C 367.147 408.889 383.524 405.652 399.941 402.539 C 402.068 402.135 404.195 401.73 406.321 401.325 C 409.906 400.642 413.492 399.962 417.078 399.285 C 419.078 398.907 421.078 398.527 423.077 398.148 C 428.811 397.071 434.54 396.044 440.312 395.19 C 447.882 394.055 455.381 392.588 462.89 391.112 C 465.283 390.642 467.676 390.175 470.07 389.71 C 479.231 387.929 479.231 387.929 488.347 385.933 C 492.416 385.059 495.879 384.993 500.023 385.143 C 500.023 389.763 500.023 394.383 500.023 399.143 C 494.63 400.782 489.25 401.939 483.71 402.956 C 481.853 403.303 479.997 403.651 478.14 403.999 C 477.156 404.182 476.172 404.366 475.158 404.555 C 469.547 405.608 463.941 406.689 458.335 407.768 C 457.262 407.974 456.188 408.18 455.082 408.393 C 454.048 408.591 453.014 408.79 451.948 408.995 C 451.045 409.169 450.142 409.342 449.211 409.521 C 446.554 410.04 443.899 410.57 441.244 411.105 C 436.355 412.084 431.457 413.008 426.554 413.913 C 424.761 414.245 422.969 414.577 421.177 414.909 C 420.253 415.08 419.33 415.251 418.379 415.427 C 409.926 416.992 401.474 418.568 393.023 420.143 C 392.325 420.273 391.628 420.403 390.909 420.537 C 374.287 423.638 357.74 427.052 341.206 430.593 C 339.956 430.86 338.705 431.128 337.416 431.404 C 334.585 432.021 331.763 432.668 328.941 433.327 C 322.479 434.765 315.126 435.632 309.023 432.581 C 301.665 426.603 300.341 417.944 298.023 409.143 C 296.922 405.017 295.816 400.893 294.71 396.768 C 294.414 395.66 294.117 394.552 293.812 393.411 C 291.697 385.546 289.493 377.711 287.21 369.893 C 286.92 368.9 286.631 367.907 286.332 366.884 C 285.572 364.3 284.813 361.718 284.023 359.143 C 283.761 358.22 283.5 357.297 283.23 356.346 C 281.679 352.233 279.539 348.704 277.218 344.983 C 276.736 344.202 276.253 343.421 275.756 342.617 C 270.059 333.475 263.984 324.591 257.898 315.706 C 256.196 313.22 254.496 310.734 252.801 308.244 C 251.759 306.715 250.714 305.187 249.665 303.663 C 249.201 302.98 248.736 302.298 248.257 301.595 C 247.643 300.7 247.643 300.7 247.018 299.788 C 246.023 298.143 246.023 298.143 245.023 295.143 C 243.384 294.41 241.71 293.757 240.023 293.143 C 236.008 291.009 232.068 288.745 228.122 286.486 C 226.23 285.405 224.333 284.332 222.435 283.261 C 203.186 272.325 203.186 272.325 200.023 264.143 C 199.46 260.686 199.438 257.29 199.456 253.792 C 199.45 252.815 199.444 251.838 199.438 250.831 C 199.43 248.775 199.434 246.72 199.446 244.664 C 199.46 241.521 199.426 238.38 199.388 235.237 C 199.387 233.235 199.389 231.232 199.394 229.229 C 199.381 228.293 199.367 227.356 199.354 226.391 C 199.417 221.981 199.554 219.795 202.187 216.138 C 207.487 212.41 212.525 211.852 218.864 211.916 C 219.626 211.916 220.387 211.916 221.172 211.916 C 223.672 211.917 226.171 211.932 228.671 211.948 C 230.411 211.952 232.152 211.955 233.892 211.957 C 238.459 211.964 243.026 211.984 247.593 212.006 C 253.079 212.03 258.566 212.039 264.053 212.051 C 272.376 212.07 280.699 212.109 289.023 212.143 C 288.693 196.303 288.363 180.463 288.023 164.143 C 282.063 164.213 282.063 164.213 275.984 164.284 C 272.131 164.315 268.279 164.34 264.427 164.363 C 261.751 164.381 259.076 164.411 256.401 164.445 C 252.554 164.494 248.706 164.516 244.859 164.534 C 243.665 164.555 242.471 164.575 241.241 164.597 C 230.673 164.6 230.673 164.6 226.023 160.143 C 224.04 157.283 223.781 155.035 223.827 151.597 C 223.837 150.33 223.837 150.33 223.847 149.038 C 223.872 147.729 223.872 147.729 223.898 146.393 C 223.907 145.505 223.916 144.617 223.925 143.702 C 223.949 141.516 223.981 139.33 224.023 137.143 C 223.115 137.164 222.207 137.185 221.272 137.207 C 217.884 137.275 214.496 137.325 211.108 137.363 C 209.645 137.383 208.182 137.41 206.72 137.445 C 204.61 137.494 202.501 137.517 200.39 137.534 C 199.123 137.555 197.855 137.576 196.55 137.598 C 192.338 137.055 190.264 135.852 187.023 133.143 C 185.711 131.043 185.711 131.043 184.691 128.854 C 180.193 121.744 171.843 119.637 164.335 116.768 C 162.702 116.12 161.069 115.47 159.438 114.816 C 156.166 113.51 152.889 112.218 149.606 110.939 C 144.501 108.947 139.434 106.871 134.368 104.782 C 130.07 103.012 125.761 101.273 121.452 99.532 C 118.364 98.282 115.279 97.023 112.195 95.762 C 109.519 94.669 106.84 93.583 104.161 92.498 C 102.287 91.737 100.416 90.969 98.545 90.201 C 86.148 85.199 73.549 81.899 60.491 79.136 C 56.981 78.393 53.475 77.633 49.968 76.874 C 49.278 76.725 48.588 76.576 47.877 76.422 C 39.742 74.659 31.651 72.724 23.563 70.758 C 18.782 69.601 13.996 68.468 9.21 67.331 C 7.433 66.908 5.655 66.485 3.878 66.061 C 2.606 65.759 1.334 65.456 0.023 65.143 C 0.023 60.193 0.023 55.243 0.023 50.143 Z" style="stroke-width: 1; filter: none;"/>
  <path d="M 461.237 60.817 L 504.071 157.206 L 418.403 157.206 L 461.237 60.817 Z" bx:shape="triangle 418.403 60.817 85.668 96.389 0.5 0 1@696edcf4" style="stroke: rgb(0, 0, 0); paint-order: stroke; stroke-width: 1; fill-rule: nonzero; filter: none;" transform="matrix(0.78801015, -0.61566225, 0.61566225, 0.78801015, -175.51376343, 498.20877075)"/>
  <path d="M 304.216 43.714 L 332.468 112.995 L 275.964 112.995 L 304.216 43.714 Z" bx:shape="triangle 275.964 43.714 56.504 69.281 0.5 0 1@286d93ac" style="stroke: rgb(0, 0, 0); paint-order: stroke; transform-box: fill-box; transform-origin: 50% 50%;" transform="matrix(0.78801, -0.615662, 0.615662, 0.78801, -46.367973, 225.714552)"/>
</svg>